<?xml version="1.0" standalone="no"?>
<!DOCTYPE svg PUBLIC "-//W3C//DTD SVG 20010904//EN"
 "http://www.w3.org/TR/2001/REC-SVG-20010904/DTD/svg10.dtd">
<svg version="1.0" xmlns="http://www.w3.org/2000/svg"
 width="400.000000pt" height="80.000000pt" viewBox="0 0 400.000000 80.000000"
 preserveAspectRatio="xMidYMid meet">
<metadata>
Created by potrace 1.15, written by Peter Selinger 2001-2017
</metadata>
<g transform="translate(0.000000,80.000000) scale(0.100000,-0.100000)"
fill="#000000" stroke="none">
<path d="M680 470 l0 -270 68 0 67 -1 95 -89 c52 -49 95 -88 96 -87 1 1 -4 34
-12 72 -22 115 -36 105 141 105 l155 0 0 270 0 270 -305 0 -305 0 0 -270z
m432 134 c44 -8 51 -28 50 -146 0 -103 -6 -116 -50 -125 -53 -11 -252 -8 -283
5 -24 9 -27 17 -33 79 -6 62 4 166 16 178 20 21 194 25 300 9z"/>
<path d="M2076 655 c-58 -21 -88 -46 -116 -101 -35 -67 -36 -198 -2 -261 45
-85 138 -126 237 -106 70 15 107 41 134 95 l21 43 -27 11 c-60 25 -73 26 -73
9 0 -9 -15 -32 -34 -51 -47 -47 -95 -47 -141 -1 -60 60 -60 204 1 265 55 55
125 42 169 -31 8 -14 17 -15 48 -8 50 12 52 15 37 51 -34 82 -152 122 -254 85z"/>
<path d="M1470 420 l0 -240 45 0 44 0 3 150 3 149 91 -147 90 -147 52 -3 52
-3 0 240 0 241 -45 0 -44 0 -3 -157 -3 -157 -95 157 -95 157 -47 0 -48 0 0
-240z"/>
<path d="M2430 420 l0 -240 50 0 50 0 0 240 0 240 -50 0 -50 0 0 -240z"/>
</g>
</svg>
