<?xml version="1.0" encoding="utf-8"?>
<!-- Generator: Adobe Illustrator 21.0.0, SVG Export Plug-In . SVG Version: 6.00 Build 0)  -->
<svg version="1.1" id="Layer_1" xmlns="http://www.w3.org/2000/svg" xmlns:xlink="http://www.w3.org/1999/xlink" x="0px" y="0px"
	 viewBox="0 0 720 290" style="enable-background:new 0 0 720 290;" xml:space="preserve">
<g>
	<rect x="671.4" y="41" width="34.6" height="180.3"/>
	<path d="M608.9,153.8c-1.9,6.3-4.5,12.3-8.1,17.7c-4.1,6.1-9.3,11.3-15.2,14.9c-6,3.6-12.6,5.5-19.4,5.5
		c-6.8-0.1-13.4-2.1-19.3-5.7c-5.9-3.7-11-8.9-15-15c-7.9-12.4-11.3-27.7-10.8-42.6c-0.7-14.9,2.9-30.2,10.8-42.6
		c4-6.1,9.1-11.3,15-15c5.9-3.6,12.5-5.6,19.3-5.7c6.8,0,13.4,1.9,19.4,5.5c5.9,3.6,11.1,8.8,15.2,14.9c2.2,3.4,4.1,7,5.7,10.8
		l30.8-8.5c-3.2-7.2-7.3-14-12.2-20.3c-6.8-8.7-15.4-16.3-25.5-21.7c-10-5.5-21.6-8.8-33.3-8.8c-11.7-0.1-23.4,3.1-33.4,8.6
		c-10.1,5.4-18.8,13-25.7,21.7c-14,17.4-21,39.2-21.9,60.9c0.7,21.8,7.9,43.6,21.9,60.9c6.9,8.7,15.6,16.3,25.7,21.6
		c10.1,5.4,21.7,8.6,33.4,8.5c11.7,0,23.3-3.2,33.3-8.7c10.1-5.4,18.7-13,25.4-21.7c5.9-7.5,10.5-15.7,14-24.4L608.9,153.8z"/>
	<polygon points="419.4,41 419.4,161.3 344.4,41 313,41 313,221.3 344.4,221.3 344.4,102.9 419.4,221.3 450.8,221.3 450.8,41 	"/>
	<path d="M242.8,10.3H14.3v201.6H61l76.6,70.1l-12.2-70.1h117.4V10.3z M191.5,161.2c-66.7,10-129.6,0-129.6,0
		c-12.2-50.1,0-96.4,0-96.4c66.7-15.4,129.6,0,129.6,0C202.9,111.9,191.5,161.2,191.5,161.2z"/>
	<g>
		<g>
			<path d="M220.7,245.4h-4.8v8h-3.5v-21.9h9c5.4,0,8.1,2.3,8.1,7c0,3.7-1.7,5.9-5.1,6.6l5.5,8.3h-4.1L220.7,245.4z M215.9,242.6
				h5.1c3.3,0,5-1.4,5-4.2c0-2.7-1.6-4.1-5-4.1h-5.1V242.6z"/>
		</g>
		<g>
			<path d="M221.2,262.9c-11.3,0-20.5-9.2-20.5-20.5c0-11.3,9.2-20.5,20.5-20.5c11.3,0,20.5,9.2,20.5,20.5
				C241.7,253.7,232.5,262.9,221.2,262.9z M221.2,226.9c-8.5,0-15.5,7-15.5,15.5s7,15.5,15.5,15.5c8.5,0,15.5-7,15.5-15.5
				S229.7,226.9,221.2,226.9z"/>
		</g>
	</g>
</g>
</svg>
